<?xml version="1.0" standalone="no"?><!DOCTYPE svg PUBLIC "-//W3C//DTD SVG 1.1//EN" "http://www.w3.org/Graphics/SVG/1.1/DTD/svg11.dtd"><svg t="1516776537700" class="icon" style="" viewBox="0 0 1024 1024" version="1.1" xmlns="http://www.w3.org/2000/svg" p-id="6518" xmlns:xlink="http://www.w3.org/1999/xlink" width="98" height="98"><defs><style type="text/css"></style></defs><path d="M175.340303 477.565831c56.450373 25.030226 175.510313 67.017665 338.631805 67.017665s282.181432-41.987439 338.631804-67.017665c56.265791-24.945221 89.245166-49.249265 106.61526-66.806368H68.725044c17.370093 17.554674 50.349468 41.858718 106.615259 66.806368z" fill="#F7CF40" p-id="6519"></path><path d="M999.712958 362.185378h-971.4817c-13.411305 0-24.287042 10.873309-24.287042 24.287043 0 63.313891 116.121208 119.718119 151.709011 135.49741 103.535662 45.904939 230.787621 71.18775 358.318881 71.18775s254.783219-25.280383 358.318881-71.18775c35.587803-15.779292 151.709011-72.183519 151.709011-135.49741 0-13.413734-10.873309-24.287042-24.287042-24.287043z m-147.109046 115.380453c-56.450373 25.030226-175.510313 67.017665-338.631804 67.017665S231.790676 502.593628 175.340303 477.565831c-56.265791-24.945221-89.245166-49.249265-106.615259-66.806368h890.494128c-17.370093 17.554674-50.349468 41.858718-106.61526 66.806368z" fill="" p-id="6520"></path><path d="M784.371895 99.948466c13.350587 10.329279 32.168188 22.817676 52.433296 29.814773 11.890936 4.109368 64.217369 8.590327 123.166879 8.714191h0.106863c8.655902 0 9.780392-1.933249 10.523575-3.210747 2.200406-3.78635 4.823407-12.983853 4.823407-35.318217 0-22.331936-2.623001-31.531867-4.825835-35.318217-0.743183-1.277498-1.870102-3.213176-10.521147-3.213176-59.063659 0.126293-111.390092 4.604823-123.271313 8.711762-20.26268 7.001954-39.08028 19.487923-52.435725 29.819631zM67.865283 138.479859h0.104434c58.951938-0.123864 111.278371-4.604823 123.166879-8.711762 19.507353-6.739654 38.470675-19.0629 52.450297-29.807488-13.350587-10.331708-32.175474-22.824963-52.447869-29.826916-11.88365-4.106939-64.210083-8.587898-123.169307-8.714191-8.757908 0-9.882398 1.933249-10.62801 3.213175-2.200406 3.783921-4.823407 12.983853-4.823406 35.318218 0 22.329507 2.623001 31.529439 4.823406 35.315788 0.745612 1.277498 1.872531 3.213176 10.523576 3.213176z" fill="#7A4D33" p-id="6521"></path><path d="M67.862854 187.053944h0.208869c39.612166-0.082576 113.45449-2.574427 138.929169-11.376051 37.397188-12.920707 69.2205-38.810694 83.282697-51.442385h447.374609c14.062198 12.629262 45.885509 38.519249 83.280269 51.439956 25.477108 8.804053 99.319432 11.293475 138.929169 11.37848h0.211297c24.282185 0 41.951008-9.207218 52.511014-27.369068 7.997723-13.748895 11.407624-31.614443 11.407624-59.73641 0-23.82316 0-87.105478-64.129935-87.105478-39.619452 0.085005-113.464205 2.574427-138.926741 11.376051-37.394759 12.920707-69.218071 38.810694-83.280268 51.444813H290.283589c-14.062198-12.631691-45.885509-38.521678-83.27784-51.442385-25.467393-8.801624-99.312145-11.293475-139.140466-11.378479-63.921067 0-63.921067 63.284747-63.921067 87.105478s0 87.103049 63.918638 87.105478z m902.737226-122.423695c2.202835 3.78635 4.825835 12.986282 4.825835 35.318217 0 22.334364-2.623001 31.531867-4.823407 35.318217-0.743183 1.277498-1.867674 3.210747-10.523575 3.210747h-0.106863c-58.94951-0.123864-111.275943-4.604823-123.166879-8.714191-20.265108-6.999526-39.082709-19.485494-52.433296-29.814773 13.355445-10.331708 32.173045-22.820105 52.435725-29.819631 11.881221-4.10451 64.205226-8.58547 123.271313-8.711762 8.651045 0 9.777963 1.935677 10.521147 3.213176z m-913.258373 0c0.745612-1.279927 1.870102-3.213176 10.62801-3.213176 58.959224 0.126293 111.285657 4.604823 123.169307 8.714191 20.272394 7.001954 39.097281 19.495209 52.447869 29.826917-13.979622 10.747016-32.940516 23.067833-52.450297 29.807487-11.888507 4.106939-64.21494 8.587898-123.166879 8.711762h-0.104434c-8.653473 0-9.777963-1.935677-10.523576-3.213176-2.200406-3.78635-4.823407-12.986282-4.823406-35.315788 0-22.334364 2.623001-31.534296 4.823406-35.318217z" fill="" p-id="6522"></path><path d="M995.768742 768.286587c-47.209153 0-71.777925 14.739806-93.454111 27.747946-19.393203 11.635922-34.71347 20.826139-68.465173 20.826139-33.754132 0-49.074398-9.190217-68.467601-20.826139-21.678614-13.005711-46.247386-27.747946-93.454111-27.747946-47.206724 0-71.775497 14.739806-93.451682 27.747946-19.393203 11.635922-34.711041 20.826139-68.462744 20.826139-33.749274 0-49.067112-9.190217-68.462744-20.826139-21.676185-13.005711-46.244958-27.747946-93.449253-27.747946-47.204296 0-71.773068 14.742235-93.449254 27.747946-19.388346 11.635922-34.706184 20.826139-68.455458 20.826139s-49.067112-9.190217-68.460315-20.826139c-21.676185-13.005711-46.244958-27.747946-93.449254-27.747946-13.413734 0-24.287042 10.875738-24.287042 24.287043s10.873309 24.287042 24.287042 24.287042c33.749274 0 49.064683 9.190217 68.457887 20.826139 21.678614 13.005711 46.247386 27.747946 93.454111 27.747946 47.204296 0 71.770639-14.742235 93.449253-27.747946 19.388346-11.635922 34.706184-20.826139 68.455458-20.826139s49.064683 9.190217 68.455458 20.826139c21.678614 13.005711 46.247386 27.747946 93.454111 27.747946 47.204296 0 71.777925-14.742235 93.454111-27.747946 19.393203-11.635922 34.711041-20.826139 68.462744-20.826139s49.071969 9.190217 68.465173 20.826139c21.678614 13.005711 46.249815 27.747946 93.456539 27.747946s71.777925-14.739806 93.454111-27.747946c19.393203-11.635922 34.71347-20.826139 68.465173-20.826139 13.411305 0 24.287042-10.875738 24.287042-24.287042-0.002429-13.413734-10.878166-24.287042-24.289471-24.287043zM995.768742 914.008842c-47.209153 0-71.777925 14.739806-93.454111 27.747946-19.393203 11.635922-34.71347 20.826139-68.465173 20.826139-33.754132 0-49.074398-9.190217-68.467601-20.826139-21.678614-13.005711-46.247386-27.747946-93.454111-27.747946-47.206724 0-71.775497 14.739806-93.451682 27.747946-19.393203 11.635922-34.711041 20.826139-68.462744 20.826139-33.749274 0-49.067112-9.190217-68.462744-20.826139-21.676185-13.005711-46.244958-27.747946-93.449253-27.747946-47.204296 0-71.773068 14.742235-93.449254 27.747946-19.388346 11.635922-34.706184 20.826139-68.455458 20.826139s-49.067112-9.190217-68.460315-20.826139c-21.676185-13.005711-46.244958-27.747946-93.449254-27.747946-13.413734 0-24.287042 10.875738-24.287042 24.287042s10.873309 24.287042 24.287042 24.287043c33.749274 0 49.064683 9.190217 68.457887 20.826139 21.678614 13.005711 46.247386 27.747946 93.454111 27.747946 47.204296 0 71.770639-14.742235 93.449253-27.747946 19.388346-11.635922 34.706184-20.826139 68.455458-20.826139s49.064683 9.190217 68.455458 20.826139c21.678614 13.005711 46.247386 27.747946 93.454111 27.747946 47.204296 0 71.777925-14.742235 93.454111-27.747946 19.393203-11.635922 34.711041-20.826139 68.462744-20.826139s49.071969 9.190217 68.465173 20.826139c21.678614 13.005711 46.249815 27.747946 93.456539 27.747946s71.777925-14.739806 93.454111-27.747946c19.393203-11.635922 34.71347-20.826139 68.465173-20.826139 13.411305 0 24.287042-10.875738 24.287042-24.287043-0.002429-13.413734-10.878166-24.287042-24.289471-24.287042z" fill="#6ECCAE" p-id="6523"></path></svg>