<?xml version="1.0" standalone="no"?><!DOCTYPE svg PUBLIC "-//W3C//DTD SVG 1.1//EN" "http://www.w3.org/Graphics/SVG/1.1/DTD/svg11.dtd"><svg t="1514366325972" class="icon" style="" viewBox="0 0 1024 1024" version="1.1" xmlns="http://www.w3.org/2000/svg" p-id="2156" xmlns:xlink="http://www.w3.org/1999/xlink" width="98" height="98"><defs><style type="text/css"></style></defs><path d="M943.30656082 84.89946168H82.24096963c-37.86648451 0-68.56475443 30.69715336-68.56475443 68.56475441v582.94779634c0 37.86760106 30.6982699 68.5669875 68.56475443 68.56698751h403.783743v119.45461204H296.53039113c-13.09259884 0-23.68748803 10.59377263-23.68748802 23.68637147s10.59377263 23.68637149 23.68748802 23.68637148h426.36361906c13.09259884 0 23.68637149-10.59377263 23.68637148-23.68637148s-10.59377263-23.68637149-23.68637148-23.68637147H533.39857215V804.97899994h409.90798867c37.86983415 0 68.56475443-30.6982699 68.56475442-68.56698751v-582.94779634c0.00111653-37.86760106-30.69492026-68.56475443-68.56475442-68.56475441z m-861.06559119 47.37274297h861.06559119c11.68463644 0 21.19201145 9.507375 21.19201144 21.19201144V613.70602331H61.04895817V153.46421609c0-11.68463644 9.507375-21.19201145 21.19201146-21.19201144z m861.06559119 625.33293578H82.24096963c-11.68463644 0-21.19201145-9.507375-21.19201146-21.193128v-75.33212961h903.44961409v75.33212961c0 11.68575298-9.507375 21.19312798-21.19201144 21.193128z" p-id="2157"></path></svg>